HIERARCHY
ROOT Hips
{
 OFFSET 0.000000 0.000000 0.000000
 CHANNELS 6 Xposition Yposition Zposition Yrotation Xrotation Zrotation
 JOINT Chest
 {
  OFFSET 0.000000 9.630565 -1.070063
  CHANNELS 3 Yrotation Xrotation Zrotation
  JOINT Chest2
  {
   OFFSET 0.000000 10.515092 0.000000
   CHANNELS 3 Yrotation Xrotation Zrotation
   JOINT Chest3
   {
    OFFSET 0.000000 9.604626 -0.030425
    CHANNELS 3 Yrotation Xrotation Zrotation
    JOINT Chest4
    {
     OFFSET 0.000000 9.593896 -0.030455
     CHANNELS 3 Yrotation Xrotation Zrotation
     JOINT Neck
     {
      OFFSET 0.000000 13.488791 0.000000
      CHANNELS 3 Yrotation Xrotation Zrotation
      JOINT Head
      {
       OFFSET 0.000000 10.704499 -0.075716
       CHANNELS 3 Yrotation Xrotation Zrotation
       End Site
       {
        OFFSET 0.000000 21.416259 -0.029166
       }
      }
     }
     JOINT RightCollar
     {
      OFFSET -3.054452 7.579305 0.000000
      CHANNELS 3 Yrotation Xrotation Zrotation
      JOINT RightShoulder
      {
       OFFSET -14.776674 0.000000 0.000000
       CHANNELS 3 Yrotation Xrotation Zrotation
       JOINT RightElbow
       {
        OFFSET -30.982767 0.000000 0.000000
        CHANNELS 3 Yrotation Xrotation Zrotation
        JOINT RightWrist
        {
         OFFSET -25.330466 0.000000 0.000000
         CHANNELS 3 Yrotation Xrotation Zrotation
         JOINT RightFinger0
         {
          OFFSET -2.833226 0.000000 2.791865
          CHANNELS 3 Yrotation Xrotation Zrotation
          JOINT RightFinger01
          {
           OFFSET -3.663730 0.000000 0.000000
           CHANNELS 3 Yrotation Xrotation Zrotation
           JOINT RightFinger02
           {
            OFFSET -3.215815 0.000000 0.000000
            CHANNELS 3 Yrotation Xrotation Zrotation
            End Site
            {
             OFFSET -3.215815 0.000000 0.000000
            }
           }
          }
         }
         JOINT RightFinger1
         {
          OFFSET -9.466533 0.000000 1.251169
          CHANNELS 3 Yrotation Xrotation Zrotation
          JOINT RightFinger11
          {
           OFFSET -4.280860 0.000000 0.000000
           CHANNELS 3 Yrotation Xrotation Zrotation
           JOINT RightFinger12
           {
            OFFSET -2.336894 0.000000 0.000000
            CHANNELS 3 Yrotation Xrotation Zrotation
            End Site
            {
             OFFSET -2.099069 0.000000 0.000000
            }
           }
          }
         }
         JOINT RightFinger2
         {
          OFFSET -9.482001 0.000000 0.000000
          CHANNELS 3 Yrotation Xrotation Zrotation
          JOINT RightFinger21
          {
           OFFSET -4.684129 0.000000 0.000000
           CHANNELS 3 Yrotation Xrotation Zrotation
           JOINT RightFinger22
           {
            OFFSET -2.771185 0.000000 0.000000
            CHANNELS 3 Yrotation Xrotation Zrotation
            End Site
            {
             OFFSET -2.202471 0.000000 0.000000
            }
           }
          }
         }
         JOINT RightFinger3
         {
          OFFSET -9.119393 0.000000 -1.261509
          CHANNELS 3 Yrotation Xrotation Zrotation
          JOINT RightFinger31
          {
           OFFSET -4.446304 0.000000 0.000000
           CHANNELS 3 Yrotation Xrotation Zrotation
           JOINT RightFinger32
           {
            OFFSET -2.636761 0.000000 0.000000
            CHANNELS 3 Yrotation Xrotation Zrotation
            End Site
            {
             OFFSET -2.223152 0.000000 0.000000
            }
           }
          }
         }
         JOINT RightFinger4
         {
          OFFSET -8.375151 0.000000 -2.254173
          CHANNELS 3 Yrotation Xrotation Zrotation
          JOINT RightFinger41
          {
           OFFSET -3.712147 0.000000 0.000000
           CHANNELS 3 Yrotation Xrotation Zrotation
           JOINT RightFinger42
           {
            OFFSET -2.016347 0.000000 0.000000
            CHANNELS 3 Yrotation Xrotation Zrotation
            End Site
            {
             OFFSET -2.140430 0.000000 0.000000
            }
           }
          }
         }
        }
       }
      }
     }
     JOINT LeftCollar
     {
      OFFSET 3.054452 7.579305 0.000000
      CHANNELS 3 Yrotation Xrotation Zrotation
      JOINT LeftShoulder
      {
       OFFSET 14.776674 0.000000 0.000000
       CHANNELS 3 Yrotation Xrotation Zrotation
       JOINT LeftElbow
       {
        OFFSET 30.982767 0.000000 0.000000
        CHANNELS 3 Yrotation Xrotation Zrotation
        JOINT LeftWrist
        {
         OFFSET 25.330466 0.000000 0.000000
         CHANNELS 3 Yrotation Xrotation Zrotation
         JOINT LeftFinger0
         {
          OFFSET 2.833226 0.000000 2.791865
          CHANNELS 3 Yrotation Xrotation Zrotation
          JOINT LeftFinger01
          {
           OFFSET 3.663730 0.000000 0.000000
           CHANNELS 3 Yrotation Xrotation Zrotation
           JOINT LeftFinger02
           {
            OFFSET 3.215815 0.000000 0.000000
            CHANNELS 3 Yrotation Xrotation Zrotation
            End Site
            {
             OFFSET 3.215815 0.000000 0.000000
            }
           }
          }
         }
         JOINT LeftFinger1
         {
          OFFSET 9.466533 0.000000 1.251169
          CHANNELS 3 Yrotation Xrotation Zrotation
          JOINT LeftFinger11
          {
           OFFSET 4.280860 0.000000 0.000000
           CHANNELS 3 Yrotation Xrotation Zrotation
           JOINT LeftFinger12
           {
            OFFSET 2.336894 0.000000 0.000000
            CHANNELS 3 Yrotation Xrotation Zrotation
            End Site
            {
             OFFSET 2.099069 0.000000 0.000000
            }
           }
          }
         }
         JOINT LeftFinger2
         {
          OFFSET 9.482001 0.000000 0.000000
          CHANNELS 3 Yrotation Xrotation Zrotation
          JOINT LeftFinger21
          {
           OFFSET 4.684129 0.000000 0.000000
           CHANNELS 3 Yrotation Xrotation Zrotation
           JOINT LeftFinger22
           {
            OFFSET 2.771185 0.000000 0.000000
            CHANNELS 3 Yrotation Xrotation Zrotation
            End Site
            {
             OFFSET 2.202471 0.000000 0.000000
            }
           }
          }
         }
         JOINT LeftFinger3
         {
          OFFSET 9.119393 0.000000 -1.261509
          CHANNELS 3 Yrotation Xrotation Zrotation
          JOINT LeftFinger31
          {
           OFFSET 4.446304 0.000000 0.000000
           CHANNELS 3 Yrotation Xrotation Zrotation
           JOINT LeftFinger32
           {
            OFFSET 2.636761 0.000000 0.000000
            CHANNELS 3 Yrotation Xrotation Zrotation
            End Site
            {
             OFFSET 2.223152 0.000000 0.000000
            }
           }
          }
         }
         JOINT LeftFinger4
         {
          OFFSET 8.375151 0.000000 -2.254173
          CHANNELS 3 Yrotation Xrotation Zrotation
          JOINT LeftFinger41
          {
           OFFSET 3.712147 0.000000 0.000000
           CHANNELS 3 Yrotation Xrotation Zrotation
           JOINT LeftFinger42
           {
            OFFSET 2.016347 0.000000 0.000000
            CHANNELS 3 Yrotation Xrotation Zrotation
            End Site
            {
             OFFSET 2.140430 0.000000 0.000000
            }
           }
          }
         }
        }
       }
      }
     }
    }
   }
  }
 }
 JOINT RightHip
 {
  OFFSET -8.040601 0.075541 -0.008393
  CHANNELS 3 Yrotation Xrotation Zrotation
  JOINT RightKnee
  {
   OFFSET 0.000000 -40.488015 -0.007192
   CHANNELS 3 Yrotation Xrotation Zrotation
   JOINT RightAnkle
   {
    OFFSET 0.000000 -39.536317 -0.012122
    CHANNELS 3 Yrotation Xrotation Zrotation
    JOINT RightToe
    {
     OFFSET 0.000000 -7.815405 17.988983
     CHANNELS 3 Yrotation Xrotation Zrotation
     End Site
     {
      OFFSET 0.000000 -2.689051 7.496003
     }
    }
   }
  }
 }
 JOINT LeftHip
 {
  OFFSET 8.040601 0.073397 -0.008155
  CHANNELS 3 Yrotation Xrotation Zrotation
  JOINT LeftKnee
  {
   OFFSET 0.000000 -40.488015 -0.007192
   CHANNELS 3 Yrotation Xrotation Zrotation
   JOINT LeftAnkle
   {
    OFFSET 0.000000 -39.536317 -0.012122
    CHANNELS 3 Yrotation Xrotation Zrotation
    JOINT LeftToe
    {
     OFFSET 0.000000 -7.815405 17.988983
     CHANNELS 3 Yrotation Xrotation Zrotation
     End Site
     {
      OFFSET 0.000000 -2.689051 7.496003
     }
    }
   }
  }
 }
}
MOTION
Frames: 4
Frame Time: 0.016667
0.000000 125.000000 0.000000 84.614188 2.601627 1.520600 -1.274348 -2.507491 0.411110 -0.581992 -6.941880 0.177048 -0.577847 -1.121746 0.117958 -0.424244 4.995256 0.087690 -1.659174 17.417745 0.293936 -3.163252 -3.657238 1.107173 -8.128388 -8.196314 6.941658 4.468513 -3.001597 63.504727 111.506723 5.321037 13.665491 26.853357 47.850278 -43.089209 124.684250 73.678425 133.816436 -0.005154 -0.052311 45.191364 -0.149682 0.137347 56.395739 -21.576080 -1.633708 -5.149945 0.000002 -0.640352 0.000007 -0.000006 -0.640364 -0.000014 -19.645959 -4.773985 -4.114695 -0.000002 -4.000240 0.000000 0.000018 -4.000224 -0.000001 -17.557798 -7.488420 -1.348873 -0.495223 -7.498273 1.895674 -0.465973 -7.501657 1.175228 -3.840611 -6.701952 4.790471 -0.592887 -6.065048 2.800102 -0.560760 -6.070936 1.751782 3.632493 1.872267 -13.244899 -3.301374 -0.238797 -76.704912 -4.500184 8.409828 -1.870089 6.133907 3.490840 1.186830 -85.366013 72.134697 -56.353159 -0.000010 0.000033 -10.793631 -0.000024 0.000063 -0.834902 7.142171 2.667009 -33.687455 -2.069270 3.126342 -17.720672 -2.014781 3.242120 -11.296978 2.761057 -3.792722 -56.244586 -1.634768 2.689307 -16.247119 -1.569692 2.781092 -10.299099 5.953710 -9.061083 -62.055849 0.761989 -1.680292 -12.477935 0.730227 -1.712971 -7.929290 7.930222 -14.617221 -69.606971 1.681106 -2.450034 -18.029163 1.617698 -2.554648 -11.434826 -0.000000 0.000000 0.000000 -0.000000 0.000000 0.000000 -0.000000 0.000000 0.000000 -0.000000 0.000000 0.000000 -0.000000 0.000000 0.000000 -0.000000 0.000000 0.000000 -0.000000 0.000000 0.000000 -0.000000 0.000000 0.000000
0.000000 125.000000 0.000000 84.553643 2.598065 1.514919 -1.267869 -2.493227 0.422776 -0.579601 -6.935565 0.182341 -0.575481 -1.115429 0.123494 -0.422036 4.999988 0.091868 -1.652871 17.403035 0.286712 -3.149464 -3.684915 1.092091 -8.138798 -8.205072 6.955078 4.413238 -2.984896 63.472517 111.498636 5.254403 13.712631 26.785557 47.783450 -43.097404 124.763253 73.741211 133.962192 -0.005428 -0.057092 45.161310 -0.163835 0.149324 56.233656 -21.540531 -1.568776 -4.931749 0.000034 -0.621957 -0.000002 0.000042 -0.621964 0.000006 -19.638424 -4.652054 -3.829618 0.000019 -3.937306 -0.000006 0.000035 -3.937291 0.000004 -17.524728 -7.473973 -1.258696 -0.486272 -7.497289 1.861713 -0.457577 -7.500543 1.154202 -3.844205 -6.700868 4.745118 -0.607032 -6.068305 2.865127 -0.574139 -6.074461 1.792393 3.634976 1.853738 -13.240243 -3.316665 -0.239228 -76.705665 -4.510832 8.427263 -1.870614 6.124528 3.452417 1.195396 -85.365147 72.134961 -56.351250 -0.000002 0.000034 -10.793937 -0.000003 -0.000017 -0.835489 7.143439 2.669021 -33.689030 -2.068914 3.126869 -17.713823 -2.014233 3.242662 -11.292053 2.757286 -3.789801 -56.242939 -1.637974 2.693648 -16.252078 -1.572770 2.785656 -10.302097 5.953705 -9.061092 -62.055885 0.761986 -1.680297 -12.477940 0.730228 -1.712971 -7.929287 7.930242 -14.617367 -69.607180 1.681108 -2.450043 -18.029010 1.617679 -2.554671 -11.434748 0.000000 -0.000000 -0.000000 0.000000 -0.000000 -0.000000 0.000000 -0.000000 -0.000000 0.000000 -0.000000 -0.000000 0.000000 -0.000000 -0.000000 0.000000 -0.000000 -0.000000 0.000000 -0.000000 -0.000000 0.000000 -0.000000 -0.000000
0.000000 125.000000 0.000000 84.497185 2.593700 1.509423 -1.263463 -2.478970 0.434574 -0.578138 -6.929255 0.187683 -0.574034 -1.109117 0.128985 -0.420522 5.004716 0.096011 -1.646395 17.389765 0.280427 -3.135639 -3.709892 1.078640 -8.150917 -8.213679 6.969222 4.368108 -2.958082 63.446301 111.489609 5.194922 13.757407 26.732550 47.723223 -43.097574 124.774507 73.749017 133.983796 -0.005472 -0.058026 45.151672 -0.166663 0.151691 56.204411 -21.530980 -1.516445 -4.790191 0.000008 -0.598452 -0.000000 0.000000 -0.598460 0.000017 -19.635984 -4.606236 -3.718525 -0.000006 -3.914397 -0.000007 0.000012 -3.914386 0.000003 -17.496500 -7.465939 -1.223342 -0.497217 -7.501302 1.902589 -0.467875 -7.504698 1.179519 -3.851805 -6.701938 4.758171 -0.616175 -6.071231 2.906718 -0.582777 -6.077574 1.818374 3.639685 1.836705 -13.235299 -3.332851 -0.240165 -76.710812 -4.527369 8.449935 -1.871233 6.115910 3.410522 1.201516 -85.367908 72.133396 -56.353872 -0.000002 0.000056 -10.794072 -0.000003 0.000002 -0.835878 7.141401 2.666499 -33.694709 -2.068992 3.126322 -17.719506 -2.014597 3.242047 -11.296454 2.754775 -3.770790 -56.260010 -1.641733 2.703613 -16.232290 -1.576347 2.795717 -10.289292 5.953557 -9.068195 -62.070472 0.761757 -1.680790 -12.471243 0.730004 -1.713431 -7.925024 7.930121 -14.618733 -69.606981 1.681143 -2.450207 -18.028293 1.617713 -2.554854 -11.434303 0.000000 0.000000 0.000000 0.000000 0.000000 0.000000 0.000000 0.000000 0.000000 0.000000 0.000000 0.000000 0.000000 0.000000 0.000000 0.000000 0.000000 0.000000 0.000000 0.000000 0.000000 0.000000 0.000000 0.000000
0.000000 125.000000 0.000000 84.445684 2.588368 1.504315 -1.261635 -2.464468 0.446390 -0.577819 -6.922838 0.193019 -0.573726 -1.102700 0.134353 -0.419871 5.009523 0.100059 -1.639565 17.377518 0.276305 -3.121875 -3.732915 1.069033 -8.165878 -8.223030 6.985108 4.346667 -2.916769 63.427094 111.477400 5.151632 13.787225 26.701664 47.672494 -43.082064 124.774479 73.714244 133.985313 -0.005599 -0.059784 45.147846 -0.171823 0.156026 56.112787 -21.538975 -1.558708 -4.658000 0.000018 -0.665669 -0.000004 0.000001 -0.665659 -0.000007 -19.631865 -4.597169 -3.670042 -0.000002 -3.915459 -0.000023 0.000004 -3.915450 0.000018 -17.400200 -7.436083 -1.124511 -0.538747 -7.508139 2.059210 -0.506943 -7.512131 1.276536 -3.850713 -6.710069 4.741330 -0.639779 -6.077234 3.014592 -0.605103 -6.084070 1.885818 3.646379 1.822258 -13.229311 -3.351861 -0.242654 -76.723688 -4.550875 8.476092 -1.867780 6.111634 3.366954 1.202071 -85.362451 72.135556 -56.340941 -0.000009 0.000029 -10.796277 -0.000015 0.000014 -0.839996 7.137683 2.660883 -33.682983 -2.069899 3.125129 -17.733762 -2.015754 3.240900 -11.306561 2.750691 -3.758669 -56.258422 -1.646895 2.711587 -16.234950 -1.581260 2.804002 -10.290759 5.953897 -9.063571 -62.063401 0.761865 -1.680420 -12.475087 0.730086 -1.713090 -7.927483 7.927158 -14.623769 -69.592188 1.681852 -2.450883 -18.030449 1.618390 -2.555600 -11.435659 -0.000000 -0.000000 -0.000000 -0.000000 -0.000000 -0.000000 -0.000000 -0.000000 -0.000000 -0.000000 -0.000000 -0.000000 -0.000000 -0.000000 -0.000000 -0.000000 -0.000000 -0.000000 -0.000000 -0.000000 -0.000000 -0.000000 -0.000000 -0.000000
